<svg xmlns="http://www.w3.org/2000/svg" viewBox="0 0 231.9 46.8">
    <path d="M37 29.2l5.7-17.5h.2l5.7 17.5 2.4 7.3 3.1 9.5H64L47.8.8h-9.5L21.9 46h9.7l2.9-9.5M75.6.8h28.8v8H84.6v10.3h19.3v8H84.6v10.7h19.8v8H75.6V.8zM139.4 21.7h20.8c-.4 16.7-9.6 25.1-22 25.1-13.4 0-22-11.3-22-23.4S124.8 0 138.2 0c14.8 0 18.9 9.2 20.6 14l-9.4.6c-1.6-4-4.9-6.6-11.2-6.6-7.1 0-12.6 5.8-12.6 15.4 0 8.1 5.1 15.4 13.2 15.4 7.3 0 10.6-5.2 11.4-9.4h-10.8v-7.7zM174.7.8h9V46h-9V.8zM221.9 12.7c0-3.1-3-5-6.6-5-4.5 0-7.2 2-7.2 5 0 3.1 3 4.6 5.2 5.3l8.3 2.6c6 1.9 10.3 5.4 10.3 12.4 0 5.5-4 13.8-16.4 13.8-15.7 0-17.1-10.1-17.1-14.2l9-.2c0 4.8 3.8 6.7 8.2 6.7 3.1 0 7.4-1.5 7.4-5 0-2.4-1-3.7-5.5-5.3l-9.8-3.5c-5-1.8-8.5-6.2-8.5-11.3 0-5.8 4-14 15.7-14C228.8 0 231 9.2 231 12.5l-9.1.2z"/>
    <path fill="#2962ff" d="M47 34.8H0v-7.3h44.6z"/>
</svg>